<?xml version="1.0" encoding="utf-8"?>
<!-- Generator: Adobe Illustrator 22.0.1, SVG Export Plug-In . SVG Version: 6.00 Build 0)  -->
<svg version="1.1" id="Layer_1" xmlns="http://www.w3.org/2000/svg" xmlns:xlink="http://www.w3.org/1999/xlink" x="0px" y="0px"
	 viewBox="0 0 1664.7 425.2" style="enable-background:new 0 0 1664.7 425.2;" xml:space="preserve">
<style type="text/css">
	.st0{display:none;fill:#1C1C1C;}
	.st1{display:none;fill:none;}
	.st2{display:none;}
	.st3{display:inline;fill:none;}
	.st4{display:inline;}
	.st5{fill:#CE8919;}
	.st6{fill:#FFC234;}
	.st7{fill:#FFEA27;}
	.st8{fill:#E0B423;}
	.st9{fill:#E8C123;}
	.st10{fill:#E89923;}
	.st11{fill:#131313;}
	.st12{fill:#2F3030;}
	.st13{fill:#828384;}
	.st14{fill:#343535;}
	.st15{fill:#FFFEDF;}
	.st16{fill:#FFFEDF;stroke:#1C1C1C;stroke-width:0;stroke-linecap:round;stroke-linejoin:round;}
</style>
<rect x="-133.9" y="-123.3" class="st0" width="2010" height="707"/>
<line class="st1" x1="656.1" y1="168.7" x2="704.1" y2="240.7"/>
<g class="st2">
	<path class="st3" d="M317.3,141.2c-56.3,0-84.4,31.2-84.4,93.5c0,63.4,28.1,95.1,84.4,95.1c54.9,0,82.3-31.7,82.3-95.1
		C399.6,172.4,372.2,141.2,317.3,141.2z"/>
	<path class="st4" d="M-6.6,231.7c0,94.6,48.9,141.9,146.7,141.9c29.8,0,56.5-4.4,80-13.3v-45.7c-23.5,10.2-48.9,15.2-76.2,15.2
		c-65.4,0-98.1-32.7-98.1-98.1c0-60.3,32.7-90.5,98.1-90.5c27.3,0,52.7,5.1,76.2,15.2v-45.7c-23.5-8.9-50.2-13.3-80-13.3
		C42.3,97.4-6.6,142.1-6.6,231.7z"/>
	<rect x="497.6" y="99.3" class="st4" width="50.5" height="272.4"/>
	<polygon class="st4" points="655.8,169.3 655.8,169 635.2,139.4 	"/>
	<polygon class="st4" points="607.3,99.3 635.2,139.4 607.5,99.3 	"/>
	<rect x="935.3" y="99.3" class="st4" width="50.5" height="272.4"/>
	<polygon class="st4" points="1177.5,99.3 1115.7,99.3 1014.4,211.7 1014.4,244.4 1119.7,371.7 1189.7,371.7 1061.2,226.3 	"/>
	<rect x="1208.7" y="99.3" class="st4" width="50.5" height="272.4"/>
	<path class="st4" d="M1690.4,141.2c27.3,0,52.7,5.1,76.2,15.2v-45.7c-23.5-8.9-50.2-13.3-80-13.3c-97.8,0-146.7,44.8-146.7,134.3
		c0,94.6,48.1,141.9,144.2,141.9c33,0,60.5-4.8,82.5-14.5V246h-50.5v79.3c-11.7,3-22.1,4.6-31.2,4.6c-61.7,0-92.6-32.7-92.6-98.1
		C1592.3,171.4,1625,141.2,1690.4,141.2z"/>
	<polygon class="st4" points="1469.6,99.3 1469.6,248.4 1518.2,321.3 1518.2,99.3 	"/>
	<polygon class="st4" points="1469.6,297.8 1325.7,99.3 1275.5,99.3 1303.2,139.4 1323.8,169 1467.7,371.7 1518.1,371.7 
		1469.6,297.4 	"/>
	<polygon class="st4" points="776.6,99.3 776.6,248.4 825.2,321.3 825.2,99.3 	"/>
	<polygon class="st4" points="776.6,297.8 632.7,99.3 582.5,99.3 610.2,139.4 630.8,169 774.7,371.7 825.1,371.7 776.6,297.4 	"/>
</g>
<g>
	<polygon class="st5" points="429.1,355.7 255.1,418.7 435.1,369.7 603.1,303.7 	"/>
	<g>
		<g>
			<polygon class="st6" points="263.3,192.6 94.7,173.1 248.6,267.4 			"/>
			<polygon class="st7" points="312.5,4.2 263.3,192.6 248.6,267.4 94.7,173.1 254.8,418.4 428.6,355.9 360.7,151.5 			"/>
			<polygon class="st8" points="427.9,356.1 556.9,317.8 360.7,151.5 			"/>
			<polygon class="st9" points="585.3,12.7 523.3,173.7 462.1,127.6 312.5,4.2 360.7,151.5 556.9,317.8 603,304.6 			"/>
			<polygon class="st10" points="585.3,12.7 462.1,127.6 523.3,173.7 			"/>
		</g>
		<g>
			<polygon class="st11" points="380.9,212.2 398.4,265.7 439.8,218.3 			"/>
			<polygon class="st12" points="439.8,218.3 360.9,151.1 380.9,212.2 			"/>
			<polygon class="st13" points="360.9,151.1 337.7,251.7 380.9,212.2 			"/>
			<polygon class="st14" points="337.7,251.7 398.4,265.7 380.9,212.2 			"/>
		</g>
		<g>
			<polygon class="st13" points="340.9,261.5 415,316.5 401.4,274.8 			"/>
			<polygon class="st12" points="401.4,274.8 415,316.5 443,228.1 			"/>
		</g>
	</g>
</g>
<g class="st2">
	<path class="st3" d="M293,310c40.8,0,66.2-17.8,76.3-53.4L219.8,270C232.4,296.7,256.8,310,293,310z"/>
	<polygon class="st3" points="1256,177.4 1290.6,174.4 1273.7,134 	"/>
	<polygon class="st3" points="592.2,236.7 649.1,231.7 592.2,151.5 	"/>
	<polygon class="st3" points="735.9,223.9 698.7,227.2 735.9,278.5 	"/>
	<path class="st3" d="M374.2,216.3c0-61.5-27-92.2-81.1-92.2c-55.5,0-83.2,30.7-83.2,92.2c0,21.6,3.3,39.5,10,53.7l149.5-13.4
		C372.5,245.1,374.2,231.6,374.2,216.3z"/>
	<path class="st4" d="M72.9,353.2c32.3,0,61.1-4.8,86.5-14.4v-49.4c-25.4,11-52.8,16.5-82.4,16.5c-28.4,0-51-5.7-68-17.1l-71.2,6.4
		C-37.1,333.9,7.9,353.2,72.9,353.2z"/>
	<path class="st4" d="M-43,204.9c0-65.2,35.3-97.8,106-97.8c29.5,0,57,5.5,82.4,16.5V74.1C120,64.5,91.2,59.7,58.9,59.7
		c-105.7,0-158.5,48.4-158.5,145.1c0,39.3,7.8,71.1,23.5,95.3l71.2-6.4C-30.3,276.8-43,247.2-43,204.9z"/>
	<path class="st4" d="M279,85.9c-89.9,0-134.9,45.5-134.9,136.6c1,21.7,4.3,40.7,9.9,57.2l51.7-4.6c-6.7-14.1-10-32-10-53.7
		c0-61.5,27.7-92.2,83.2-92.2c54.1,0,81.1,30.7,81.1,92.2c0,15.3-1.6,28.8-4.9,40.3l54.1-4.8c1.6-10.6,2.5-22.1,2.5-34.4
		C411.8,131.4,367.6,85.9,279,85.9z"/>
	<path class="st4" d="M293,310c-36.3,0-60.7-13.4-73.2-40l-51.7,4.6c17.9,52.4,59.6,78.6,125,78.6c76.5,0,120-33.8,130.3-101.4
		l-54.1,4.8C359.3,292.2,333.9,310,293,310z"/>
	<polygon class="st4" points="455.5,351.4 505.3,351.4 505.3,244.5 455.5,249 	"/>
	<polygon class="st4" points="441.5,87.8 441.5,254 491.3,249.5 491.3,87.8 	"/>
	<polygon class="st4" points="735.9,278.5 698.7,227.2 649.1,231.7 734,351.4 783.8,351.4 783.8,219.6 735.9,223.9 	"/>
	<polygon class="st4" points="721.9,87.8 721.9,228.9 769.8,224.6 769.8,87.8 	"/>
	<polygon class="st4" points="544.3,351.4 592.2,351.4 592.2,236.7 544.3,241 	"/>
	<polygon class="st4" points="580.1,87.8 530.3,87.8 530.3,246 578.2,241.7 578.2,156.5 635.1,236.7 684.7,232.2 	"/>
	<path class="st4" d="M1033.3,353.2c35.7,0,65.4-5.2,89.1-15.6V215.3h-54.6V301c-12.6,3.3-23.9,4.9-33.8,4.9
		c-64.7,0-98-33.2-100-99.7l-56.5,5C881.4,305.9,933.3,353.2,1033.3,353.2z"/>
	<path class="st4" d="M1026.1,107.1c29.5,0,57,5.5,82.4,16.5V74.1c-25.4-9.6-54.2-14.4-86.5-14.4c-105.7,0-158.5,48.4-158.5,145.1
		c0,3.9,0.1,7.7,0.2,11.4l56.5-5c-0.1-2.1-0.1-4.2-0.1-6.3C920.1,139.7,955.4,107.1,1026.1,107.1z"/>
	<polygon class="st4" points="1316,234.9 1261.9,234.9 1244.8,278.1 1334,278.1 1364.6,351.4 1418.1,351.4 1339.5,170 1290.6,174.4 
			"/>
	<polygon class="st4" points="1234.2,87.8 1192.1,186.9 1242,182.4 1259.7,139 1276.6,179.4 1325.5,175 1287.7,87.8 	"/>
	<polygon class="st4" points="1134.1,351.4 1185.2,351.4 1256,177.4 1206.1,181.9 	"/>
	<polygon class="st4" points="1614.1,87.8 1418.8,87.8 1418.8,131 1564.2,131 1544.1,155.5 1598.7,150.6 1614.1,131 	"/>
	<polygon class="st4" points="1429,308.2 1429,351.4 1628.1,351.4 1628.1,308.2 1485.2,308.2 1612.7,145.6 1558.1,150.5 	"/>
	<polygon class="st4" points="1700,308.2 1700,237.7 1828.7,237.7 1828.7,193.2 1700.6,193.2 1700.6,137.7 1651.2,142.1 
		1651.2,351.4 1837.7,351.4 1837.7,308.2 	"/>
	<polygon class="st4" points="1686.6,130.6 1821.1,130.6 1821.1,87.8 1637.2,87.8 1637.2,147.1 1686.6,142.7 	"/>
</g>
<g>
	<rect x="514.6" y="134.5" class="st15" width="44.4" height="239.5"/>
	<polygon class="st15" points="763.6,308 637.1,133.5 592.8,133.5 592.8,372.9 635.5,372.9 635.5,194.8 761.9,372.9 805.6,372.9 
		763.6,306.4 	"/>
	<polygon class="st15" points="763.6,262.4 806.3,329.4 806.3,133.5 763.6,133.5 	"/>
	<polygon class="st15" points="1109.9,78.2 1042.9,78.2 932.9,200.2 932.9,235.8 1047.3,373.9 1123.1,373.9 983.8,216.2 	"/>
	<rect x="859.1" y="78.2" class="st15" width="54.8" height="295.7"/>
	<rect x="1135" y="134.5" class="st15" width="44.4" height="239.5"/>
	<g>
		<path class="st15" d="M1613.4,173.3c14,2.1,27.3,5.9,40,11.4v-40.2c-20.7-7.8-44.1-11.7-70.3-11.7c-7,0-13.7,0.3-20.2,0.8
			c18.4,1.5,35.2,5.1,50.5,10.9V173.3z"/>
		<path class="st15" d="M1567,172.5c-6.7-0.8-13.6-1.2-20.6-1.2c-57.5,0-86.2,26.5-86.2,79.5c0,57.5,27.1,86.2,81.4,86.2
			c5.5,0,11.4-0.6,17.9-1.9c-39.5-7.2-59.3-35.3-59.3-84.4C1500.1,204.2,1522.4,178.1,1567,172.5z"/>
		<path class="st15" d="M1561.6,374.8c6.2,0.5,12.6,0.8,19.3,0.8c29,0,53.2-4.2,72.5-12.7v-99.5h-40v99.5
			C1598.8,369.3,1581.6,373.2,1561.6,374.8z"/>
	</g>
	<polygon class="st15" points="1385.6,308 1259.1,133.5 1214.8,133.5 1214.8,372.9 1257.5,372.9 1257.5,194.8 1383.9,372.9 
		1427.6,372.9 1385.6,306.4 	"/>
	<polygon class="st15" points="1385.6,262.4 1428.3,329.4 1428.3,133.5 1385.6,133.5 	"/>
</g>
<g>
	<g>
		<path class="st15" d="M155.8,118.2c-9.1-1-18.3-1.5-27.7-1.5c-40.9,0-71.4,9.7-91.3,29C20.8,161.1,11.5,182.8,9,210.6l13.2,8.2
			L9,210.6c-0.5,5.3-0.8,10.9-0.8,16.7c0,27.7,4.8,50.6,14.4,68.6C40.7,330,75.8,347.1,128,347.1c9.6,0,19-0.5,28.3-1.6
			c-38.2-4.9-64.8-21.5-79.8-49.7c-9.6-18.1-14.4-41-14.4-68.6c0-35.9,9.5-63.1,28.5-81.5C106.1,130.7,127.8,121.6,155.8,118.2z"/>
	</g>
	<g>
		<path class="st15" d="M221.1,119.7c18.8,3,36.8,8.2,54,15.6V79.4c-28.7-10.9-61.3-16.3-97.7-16.3c-9.4,0-18.5,0.4-27.2,1
			c25.8,2,49.5,7.1,71,15.3V119.7z"/>
	</g>
	<g>
		<path class="st15" d="M150.6,399.5c8.6,0.7,17.5,1.1,26.8,1.1c36.5,0,69-5.4,97.7-16.3v-55.9c-17.2,7.4-35.2,12.6-54,15.6v40.3
			C199.8,392.4,176.2,397.5,150.6,399.5z"/>
	</g>
	<g>
		<line class="st16" x1="-53.9" y1="171.7" x2="-50.1" y2="174"/>
	</g>
	<g>
		<path class="st16" d="M22.1,218.7"/>
		<path class="st16" d="M9,210.6"/>
	</g>
	<g>
		<path class="st16" d="M9,210.6"/>
		<path class="st16" d="M-50.1,174"/>
	</g>
</g>
</svg>
